<?xml version="1.0" encoding="utf-8"?>
<!-- Generator: Adobe Illustrator 17.0.0, SVG Export Plug-In . SVG Version: 6.00 Build 0)  -->
<!DOCTYPE svg PUBLIC "-//W3C//DTD SVG 1.1//EN" "http://www.w3.org/Graphics/SVG/1.1/DTD/svg11.dtd">
<svg version="1.1" id="Layer_5" xmlns="http://www.w3.org/2000/svg" xmlns:xlink="http://www.w3.org/1999/xlink" x="0px" y="0px"
	 width="1080px" height="700px" viewBox="0 0 1080 700" enable-background="new 0 0 1080 700" xml:space="preserve">
<g>
	<circle fill="#FFFFFF" cx="841.335" cy="280.853" r="11"/>
	<g>
		<path fill="#432F59" d="M841.335,277.828c-2.268,0-4.113,1.551-4.113,3.457s1.845,3.457,4.113,3.457
			c2.268,0,4.113-1.551,4.113-3.457S843.603,277.828,841.335,277.828z M844.641,281.285c0,1.46-1.483,2.649-3.305,2.649
			s-3.305-1.188-3.305-2.649c0-1.461,1.483-2.649,3.305-2.649S844.641,279.824,844.641,281.285z"/>
		<path fill="#432F59" d="M847.628,273.754h-12.585c-0.865,0-1.568,0.703-1.568,1.568v2.345c0,0.865,0.703,1.568,1.568,1.568h0.896
			v8.657c0,0.728,0.593,1.321,1.321,1.321h8.15c0.729,0,1.321-0.592,1.321-1.321v-8.657h0.896c0.864,0,1.568-0.703,1.568-1.568
			v-2.345C849.195,274.457,848.492,273.754,847.628,273.754z M845.923,278.945v8.947c0,0.283-0.23,0.513-0.513,0.513h-8.15
			c-0.283,0-0.513-0.23-0.513-0.513V277.25h9.16v1.581C845.907,278.87,845.913,278.908,845.923,278.945z M836.054,276.062
			c0-0.01,0.008-0.018,0.018-0.018h10.528c0.01,0,0.018,0.008,0.018,0.018v0.502c-0.046-0.048-0.103-0.084-0.164-0.101
			c-0.044-0.017-0.092-0.026-0.143-0.026h-9.984c-0.101,0-0.199,0.039-0.273,0.107V276.062z M846.731,277.77
			c0.397-0.064,0.694-0.412,0.694-0.815v-0.894c0-0.455-0.37-0.825-0.825-0.825h-10.528c-0.455,0-0.826,0.37-0.826,0.825v0.894
			c0,0.396,0.284,0.734,0.677,0.809v0.662h-0.88c-0.419,0-0.76-0.341-0.76-0.76v-2.345c0-0.419,0.341-0.759,0.76-0.759h12.585
			c0.419,0,0.76,0.341,0.76,0.759v2.345c0,0.419-0.341,0.76-0.76,0.76h-0.896V277.77z"/>
		<path fill="#432F59" d="M842.329,279.516c-0.406,0-0.801,0.219-1.054,0.584c-0.167,0.229-0.278,0.511-0.329,0.837l-0.001,0.005
			h-1.357l0.002-0.007c0.031-0.111,0.072-0.237,0.143-0.337c0.112-0.177,0.231-0.243,0.437-0.243c0.22,0,0.427-0.204,0.427-0.42
			s-0.208-0.42-0.427-0.42c-0.457,0-0.886,0.235-1.148,0.628c-0.15,0.224-0.248,0.491-0.291,0.794l-0.001,0.004l-0.005,0
			c-0.206,0.015-0.387,0.209-0.387,0.416c0.001,0.219,0.2,0.418,0.417,0.418h0.005l0.001,0.005c0.059,0.302,0.172,0.565,0.335,0.782
			c0.283,0.385,0.736,0.615,1.214,0.615c0.412,0,0.8-0.213,1.065-0.586c0.162-0.236,0.269-0.509,0.32-0.812l0.001-0.004h1.355
			l-0.002,0.007c-0.028,0.109-0.072,0.215-0.123,0.299c-0.124,0.188-0.252,0.261-0.454,0.261c-0.105,0-0.212,0.045-0.293,0.124
			c-0.082,0.081-0.129,0.187-0.129,0.291c0,0.107,0.048,0.215,0.131,0.295c0.08,0.079,0.185,0.124,0.287,0.124h0.005
			c0.459,0,0.89-0.236,1.154-0.631c0.145-0.226,0.243-0.483,0.29-0.766l0.001-0.005h0.004c0.215-0.005,0.412-0.207,0.413-0.425
			c-0.002-0.104-0.051-0.209-0.134-0.289c-0.081-0.078-0.184-0.12-0.293-0.12H843.9l-0.001-0.005
			c-0.065-0.314-0.183-0.586-0.35-0.807C843.265,279.746,842.809,279.516,842.329,279.516z M841.805,280.935
			c0.041-0.142,0.098-0.268,0.159-0.354c0.107-0.158,0.217-0.225,0.365-0.225c0.244,0,0.401,0.078,0.544,0.269
			c0.062,0.08,0.113,0.182,0.156,0.311l0.002,0.007h-1.228L841.805,280.935z M839.623,281.777h1.208l-0.002,0.007
			c-0.034,0.131-0.083,0.243-0.147,0.333c-0.111,0.159-0.222,0.227-0.371,0.227c-0.235,0-0.384-0.074-0.532-0.265
			c-0.064-0.091-0.114-0.187-0.153-0.294L839.623,281.777z"/>
	</g>
</g>
<g>
	<circle fill="#FFFFFF" cx="136.206" cy="434.459" r="11"/>
	<g>
		<path fill="#432F59" d="M136.206,431.435c-2.268,0-4.113,1.551-4.113,3.457s1.845,3.457,4.113,3.457s4.113-1.551,4.113-3.457
			S138.474,431.435,136.206,431.435z M139.512,434.891c0,1.46-1.483,2.649-3.305,2.649s-3.305-1.188-3.305-2.649
			c0-1.461,1.483-2.649,3.305-2.649S139.512,433.431,139.512,434.891z"/>
		<path fill="#432F59" d="M142.499,427.361h-12.585c-0.865,0-1.568,0.703-1.568,1.568v2.345c0,0.865,0.703,1.568,1.568,1.568h0.896
			v8.657c0,0.728,0.593,1.321,1.321,1.321h8.15c0.728,0,1.321-0.592,1.321-1.321v-8.657h0.896c0.864,0,1.568-0.703,1.568-1.568
			v-2.345C144.066,428.064,143.363,427.361,142.499,427.361z M140.794,432.551v8.947c0,0.283-0.23,0.513-0.513,0.513h-8.15
			c-0.283,0-0.513-0.23-0.513-0.513v-10.642h9.16v1.581C140.778,432.476,140.784,432.514,140.794,432.551z M130.925,429.668
			c0-0.01,0.008-0.018,0.018-0.018h10.528c0.01,0,0.018,0.008,0.018,0.018v0.502c-0.046-0.048-0.103-0.084-0.163-0.101
			c-0.044-0.017-0.092-0.026-0.143-0.026h-9.984c-0.101,0-0.199,0.039-0.273,0.107V429.668z M141.602,431.376
			c0.397-0.064,0.694-0.412,0.694-0.815v-0.894c0-0.455-0.37-0.825-0.825-0.825h-10.528c-0.455,0-0.826,0.37-0.826,0.825v0.894
			c0,0.396,0.284,0.734,0.677,0.809v0.662h-0.88c-0.419,0-0.76-0.341-0.76-0.76v-2.345c0-0.419,0.341-0.759,0.76-0.759h12.585
			c0.419,0,0.76,0.341,0.76,0.759v2.345c0,0.419-0.341,0.76-0.76,0.76h-0.896V431.376z"/>
		<path fill="#432F59" d="M137.2,433.123c-0.406,0-0.801,0.219-1.054,0.584c-0.167,0.229-0.278,0.511-0.329,0.837l-0.001,0.005
			h-1.357l0.002-0.007c0.031-0.111,0.072-0.237,0.143-0.337c0.112-0.177,0.231-0.243,0.437-0.243c0.22,0,0.427-0.204,0.427-0.42
			c0-0.216-0.208-0.42-0.427-0.42c-0.457,0-0.886,0.235-1.148,0.628c-0.15,0.224-0.248,0.491-0.291,0.794l-0.001,0.004l-0.005,0
			c-0.206,0.015-0.387,0.209-0.387,0.416c0.001,0.219,0.2,0.418,0.418,0.418h0.005l0.001,0.005c0.059,0.302,0.172,0.565,0.335,0.782
			c0.283,0.385,0.736,0.615,1.214,0.615c0.412,0,0.8-0.213,1.065-0.586c0.162-0.236,0.269-0.509,0.32-0.812l0.001-0.004h1.355
			l-0.002,0.007c-0.028,0.109-0.072,0.215-0.123,0.299c-0.124,0.188-0.252,0.261-0.454,0.261c-0.105,0-0.212,0.045-0.293,0.124
			c-0.082,0.081-0.129,0.187-0.129,0.291c0,0.107,0.048,0.215,0.131,0.295c0.08,0.079,0.185,0.124,0.287,0.124h0.005
			c0.459,0,0.89-0.236,1.154-0.631c0.145-0.226,0.243-0.483,0.29-0.766l0.001-0.005h0.004c0.215-0.005,0.412-0.207,0.413-0.425
			c-0.002-0.104-0.051-0.209-0.134-0.289c-0.081-0.078-0.184-0.12-0.293-0.12h-0.005l-0.001-0.005
			c-0.065-0.314-0.183-0.586-0.35-0.807C138.136,433.353,137.68,433.123,137.2,433.123z M136.676,434.541
			c0.041-0.142,0.098-0.268,0.159-0.354c0.107-0.158,0.217-0.225,0.365-0.225c0.244,0,0.401,0.078,0.544,0.269
			c0.062,0.08,0.113,0.182,0.156,0.311l0.002,0.007h-1.228L136.676,434.541z M134.494,435.383h1.208l-0.002,0.007
			c-0.034,0.131-0.083,0.243-0.147,0.333c-0.111,0.159-0.222,0.227-0.371,0.227c-0.235,0-0.384-0.075-0.532-0.265
			c-0.064-0.091-0.114-0.187-0.153-0.294L134.494,435.383z"/>
	</g>
</g>
<g>
	<circle fill="#FFFFFF" cx="942.31" cy="433.577" r="11"/>
	<g>
		<path fill="#432F59" d="M942.31,430.553c-2.268,0-4.113,1.551-4.113,3.457s1.845,3.457,4.113,3.457
			c2.268,0,4.113-1.551,4.113-3.457S944.578,430.553,942.31,430.553z M945.616,434.009c0,1.46-1.483,2.649-3.305,2.649
			s-3.305-1.188-3.305-2.649c0-1.461,1.483-2.649,3.305-2.649S945.616,432.549,945.616,434.009z"/>
		<path fill="#432F59" d="M948.602,426.479h-12.585c-0.865,0-1.568,0.703-1.568,1.568v2.345c0,0.865,0.703,1.568,1.568,1.568h0.896
			v8.657c0,0.728,0.593,1.321,1.321,1.321h8.15c0.729,0,1.321-0.592,1.321-1.321v-8.657h0.896c0.864,0,1.568-0.703,1.568-1.568
			v-2.345C950.17,427.182,949.467,426.479,948.602,426.479z M946.898,431.669v8.947c0,0.283-0.23,0.513-0.513,0.513h-8.15
			c-0.283,0-0.513-0.23-0.513-0.513v-10.642h9.16v1.581C946.882,431.594,946.888,431.632,946.898,431.669z M937.029,428.786
			c0-0.01,0.008-0.018,0.018-0.018h10.528c0.01,0,0.018,0.008,0.018,0.018v0.502c-0.046-0.048-0.103-0.084-0.164-0.101
			c-0.044-0.017-0.092-0.026-0.143-0.026h-9.984c-0.101,0-0.199,0.039-0.273,0.107V428.786z M947.706,430.494
			c0.397-0.064,0.694-0.412,0.694-0.815v-0.894c0-0.455-0.37-0.825-0.825-0.825h-10.528c-0.455,0-0.826,0.37-0.826,0.825v0.894
			c0,0.396,0.284,0.734,0.677,0.809v0.662h-0.88c-0.419,0-0.76-0.341-0.76-0.76v-2.345c0-0.419,0.341-0.759,0.76-0.759h12.585
			c0.419,0,0.76,0.341,0.76,0.759v2.345c0,0.419-0.341,0.76-0.76,0.76h-0.896V430.494z"/>
		<path fill="#432F59" d="M943.304,432.241c-0.406,0-0.801,0.219-1.054,0.584c-0.167,0.229-0.278,0.511-0.329,0.837l-0.001,0.005
			h-1.357l0.002-0.007c0.031-0.111,0.072-0.237,0.143-0.337c0.112-0.177,0.231-0.243,0.437-0.243c0.22,0,0.427-0.204,0.427-0.42
			s-0.208-0.42-0.427-0.42c-0.457,0-0.886,0.235-1.148,0.628c-0.15,0.224-0.248,0.491-0.291,0.794l-0.001,0.004l-0.005,0
			c-0.206,0.015-0.387,0.209-0.387,0.416c0.001,0.219,0.2,0.418,0.417,0.418h0.005l0.001,0.005c0.059,0.302,0.172,0.565,0.335,0.782
			c0.283,0.385,0.736,0.615,1.214,0.615c0.412,0,0.8-0.213,1.065-0.586c0.162-0.236,0.269-0.509,0.32-0.812l0.001-0.004h1.355
			l-0.002,0.007c-0.028,0.109-0.072,0.215-0.123,0.299c-0.124,0.188-0.252,0.261-0.454,0.261c-0.105,0-0.212,0.045-0.293,0.124
			c-0.082,0.081-0.129,0.187-0.129,0.291c0,0.107,0.048,0.215,0.131,0.295c0.08,0.079,0.185,0.124,0.287,0.124h0.005
			c0.459,0,0.89-0.236,1.154-0.631c0.145-0.226,0.243-0.483,0.29-0.766l0.001-0.005h0.004c0.215-0.005,0.412-0.207,0.413-0.425
			c-0.002-0.104-0.051-0.209-0.134-0.289c-0.081-0.078-0.184-0.12-0.293-0.12h-0.005l-0.001-0.005
			c-0.065-0.314-0.183-0.586-0.35-0.807C944.24,432.471,943.784,432.241,943.304,432.241z M942.78,433.659
			c0.041-0.142,0.098-0.268,0.159-0.354c0.107-0.158,0.217-0.225,0.365-0.225c0.244,0,0.401,0.078,0.544,0.269
			c0.062,0.08,0.113,0.182,0.156,0.311l0.002,0.007h-1.228L942.78,433.659z M940.598,434.501h1.208l-0.002,0.007
			c-0.034,0.131-0.083,0.243-0.147,0.333c-0.111,0.159-0.222,0.227-0.371,0.227c-0.235,0-0.384-0.074-0.532-0.265
			c-0.064-0.091-0.114-0.187-0.153-0.294L940.598,434.501z"/>
	</g>
</g>
</svg>
