<?xml version="1.0" encoding="utf-8"?>
<!-- Generator: Adobe Illustrator 17.0.0, SVG Export Plug-In . SVG Version: 6.00 Build 0)  -->
<!DOCTYPE svg PUBLIC "-//W3C//DTD SVG 1.1//EN" "http://www.w3.org/Graphics/SVG/1.1/DTD/svg11.dtd">
<svg version="1.1" xmlns="http://www.w3.org/2000/svg" xmlns:xlink="http://www.w3.org/1999/xlink" x="0px" y="0px" width="1080px"
	 height="700px" viewBox="0 0 1080 700" enable-background="new 0 0 1080 700" xml:space="preserve">
<g id="salida">
	<g>
		<circle fill="#FFFFFF" cx="214.074" cy="480.909" r="11"/>
		<g>
			<path fill="#432F59" d="M213.278,479.767c-0.278,0-0.505,0.226-0.505,0.505v1.32c0,0.278,0.226,0.505,0.505,0.505
				s0.505-0.226,0.505-0.505v-1.32C213.782,479.994,213.556,479.767,213.278,479.767z"/>
			<path fill="#432F59" d="M222.944,477.475c-0.176-0.505-0.515-0.731-1.101-0.731c-0.103,0-0.206,0.013-0.307,0.039
				c-0.282,0.074-0.529,0.244-0.696,0.479c-0.011,0.016-0.022,0.032-0.032,0.049l-0.556,0.939l-0.91-0.636
				c0.168,0.009,0.33-0.01,0.492-0.051c0.435-0.112,0.801-0.386,1.03-0.773c0.229-0.386,0.293-0.84,0.182-1.276
				c-0.19-0.745-0.861-1.265-1.63-1.265c-0.14,0-0.282,0.018-0.42,0.053c-0.898,0.231-1.442,1.151-1.212,2.049
				c0.076,0.295,0.233,0.564,0.452,0.778c-0.129-0.003-0.255,0.011-0.377,0.043l-0.406,0.104v-2.122c0-0.82-0.667-1.487-1.487-1.487
				h-0.652c-0.233-0.533-0.774-0.888-1.371-0.888h-0.001l-6.052,0.688c-0.808,0.012-1.465,0.668-1.465,1.463v11.952
				c0,0.795,0.657,1.451,1.457,1.462l6.024,0.687l0.045,0.003c0.591,0,1.118-0.341,1.358-0.872h0.657
				c0.82,0,1.487-0.667,1.487-1.487v-2.991l0.728,0.417c0.022,2.296,0.025,2.315,0.036,2.383c0.012,0.074,0.036,0.146,0.067,0.203
				c0.192,0.535,0.702,0.894,1.271,0.894c0.105,0,0.21-0.012,0.312-0.036c0.624-0.145,1.065-0.716,1.049-1.357l-0.043-3.144
				c0.026-0.727-0.357-1.196-0.693-1.377c-0.013-0.007-0.026-0.014-0.04-0.02l-1.027-0.472l0.34-0.682l0.493,0.293
				c0.046,0.029,0.295,0.175,0.645,0.175c0.268,0,0.773-0.091,1.135-0.703l1.111-1.894c0.011-0.019,0.021-0.038,0.032-0.06
				C222.989,478.049,223.016,477.756,222.944,477.475z M219.192,475.071c0.073-0.019,0.148-0.028,0.223-0.028
				c0.407,0,0.761,0.275,0.862,0.669c0.059,0.231,0.025,0.471-0.096,0.675c-0.121,0.205-0.315,0.35-0.546,0.409
				c-0.072,0.019-0.147,0.028-0.222,0.028c-0.406,0-0.761-0.275-0.862-0.669C218.429,475.68,218.717,475.194,219.192,475.071z
				 M216.59,484.927v1.75c0,0.344-0.28,0.624-0.625,0.624h-0.527v-1.759l0.135-0.035
				C216.111,485.386,216.423,485.126,216.59,484.927z M222.167,477.972c-0.084,0.114-0.316,0.51-1.122,1.885
				c-0.123,0.208-0.276,0.314-0.453,0.314c-0.134,0-0.236-0.062-0.239-0.063l-1.228-0.729l-1.086,2.176l1.765,0.812
				c0.012,0.007,0.299,0.173,0.276,0.669l0.043,3.174c0.007,0.268-0.177,0.506-0.438,0.566c-0.043,0.01-0.087,0.015-0.132,0.015
				c-0.261,0-0.485-0.178-0.543-0.421l-0.014-0.058c-0.006-0.316-0.022-1.962-0.029-2.624l-0.001-0.046l-1.979-1.133l-0.956,1.838
				c-0.005,0.011-0.129,0.26-0.596,0.379v-2.27l1.727-3.399l-1.072,0.27l-0.655,1.314c0-0.736,0-1.739,0.001-1.881
				c0.055-0.107,0.153-0.185,0.271-0.216l2.349-0.603c0.143-0.038,0.3-0.015,0.423,0.055l2.043,1.35l0.042-0.072
				c0,0,0.911-1.538,0.922-1.558c0.099-0.169,0.407-0.27,0.554-0.163c0.12,0.086,0.212,0.24,0.111,0.413L222.167,477.972z
				 M216.59,477.5l-1.078,0.277c-0.025,0.007-0.05,0.014-0.074,0.022v-3.267h0.527c0.345,0,0.625,0.28,0.625,0.625V477.5z
				 M214.575,485.766v1.807c0,0.323-0.273,0.593-0.597,0.601l-6.022-0.686l-0.044-0.002c-0.345,0-0.625-0.269-0.625-0.601v-11.952
				c0-0.331,0.28-0.601,0.634-0.601l6.051-0.687c0.333,0.011,0.603,0.279,0.603,0.601l0.002,11.35l-0.03,0.179L214.575,485.766z"/>
		</g>
	</g>
	<g>
		<circle fill="#FFFFFF" cx="409.883" cy="466.173" r="11"/>
		<g>
			<path fill="#432F59" d="M409.087,465.031c-0.278,0-0.505,0.226-0.505,0.505v1.32c0,0.278,0.226,0.505,0.505,0.505
				c0.278,0,0.505-0.226,0.505-0.505v-1.32C409.592,465.258,409.365,465.031,409.087,465.031z"/>
			<path fill="#432F59" d="M418.754,462.739c-0.176-0.505-0.515-0.731-1.101-0.731c-0.103,0-0.206,0.013-0.307,0.039
				c-0.282,0.074-0.529,0.244-0.696,0.479c-0.011,0.016-0.022,0.032-0.032,0.049l-0.556,0.939l-0.91-0.636
				c0.168,0.009,0.33-0.01,0.492-0.051c0.435-0.112,0.801-0.386,1.03-0.773c0.229-0.386,0.293-0.84,0.182-1.276
				c-0.19-0.745-0.861-1.265-1.63-1.265c-0.14,0-0.282,0.018-0.42,0.053c-0.898,0.231-1.442,1.151-1.212,2.049
				c0.076,0.295,0.233,0.564,0.452,0.778c-0.129-0.003-0.255,0.011-0.377,0.043l-0.406,0.104v-2.122c0-0.82-0.667-1.487-1.487-1.487
				h-0.652c-0.233-0.533-0.774-0.888-1.371-0.888h-0.001l-6.052,0.688c-0.808,0.012-1.465,0.668-1.465,1.463v11.952
				c0,0.795,0.657,1.451,1.457,1.463l6.024,0.687l0.045,0.003c0.591,0,1.118-0.341,1.358-0.872h0.657
				c0.82,0,1.487-0.667,1.487-1.487v-2.991l0.728,0.417c0.022,2.296,0.025,2.315,0.036,2.383c0.012,0.074,0.036,0.146,0.067,0.203
				c0.191,0.534,0.702,0.893,1.271,0.893c0.105,0,0.21-0.012,0.312-0.036c0.624-0.145,1.065-0.716,1.049-1.357l-0.043-3.144
				c0.026-0.727-0.357-1.196-0.693-1.377c-0.013-0.007-0.026-0.014-0.04-0.02l-1.027-0.472l0.34-0.682l0.493,0.293
				c0.046,0.029,0.295,0.176,0.645,0.176c0.268,0,0.773-0.091,1.135-0.703l1.111-1.894c0.011-0.019,0.021-0.039,0.032-0.06
				C418.799,463.313,418.826,463.02,418.754,462.739z M415.002,460.335c0.073-0.019,0.148-0.028,0.223-0.028
				c0.407,0,0.761,0.275,0.862,0.669c0.059,0.231,0.025,0.471-0.096,0.675c-0.121,0.205-0.315,0.35-0.546,0.409
				c-0.072,0.019-0.147,0.028-0.222,0.028c-0.406,0-0.761-0.275-0.862-0.669C414.239,460.944,414.526,460.458,415.002,460.335z
				 M412.399,470.191v1.75c0,0.344-0.28,0.624-0.625,0.624h-0.527v-1.759l0.135-0.035
				C411.921,470.65,412.232,470.39,412.399,470.191z M417.976,463.236c-0.084,0.114-0.316,0.51-1.122,1.885
				c-0.123,0.208-0.276,0.314-0.453,0.314c-0.134,0-0.236-0.062-0.239-0.063l-1.228-0.729l-1.086,2.176l1.765,0.812
				c0.012,0.007,0.299,0.173,0.276,0.669l0.043,3.174c0.007,0.268-0.177,0.506-0.438,0.566c-0.043,0.01-0.087,0.015-0.132,0.015
				c-0.261,0-0.485-0.178-0.543-0.421l-0.014-0.058c-0.006-0.316-0.022-1.962-0.029-2.624l-0.001-0.046l-1.979-1.133l-0.956,1.838
				c-0.005,0.011-0.129,0.26-0.596,0.379v-2.27l1.727-3.399l-1.072,0.27l-0.655,1.314c0-0.736,0-1.739,0.001-1.881
				c0.055-0.107,0.153-0.185,0.271-0.216l2.349-0.603c0.143-0.038,0.3-0.015,0.423,0.055l2.043,1.35l0.042-0.072
				c0,0,0.911-1.538,0.922-1.558c0.099-0.169,0.407-0.27,0.554-0.163c0.12,0.086,0.212,0.24,0.111,0.413L417.976,463.236z
				 M412.399,462.764l-1.078,0.277c-0.025,0.007-0.05,0.014-0.074,0.022v-3.267h0.527c0.345,0,0.625,0.28,0.625,0.625V462.764z
				 M410.384,471.03v1.807c0,0.323-0.273,0.593-0.597,0.601l-6.022-0.686l-0.044-0.002c-0.345,0-0.625-0.269-0.625-0.601v-11.952
				c0-0.331,0.28-0.601,0.634-0.601l6.051-0.687c0.333,0.011,0.603,0.279,0.603,0.601l0.002,11.35l-0.03,0.179L410.384,471.03z"/>
		</g>
	</g>
	<g>
		<circle fill="#FFFFFF" cx="278.191" cy="236.169" r="11"/>
		<g>
			<path fill="#432F59" d="M277.395,235.027c-0.278,0-0.505,0.226-0.505,0.505v1.32c0,0.278,0.226,0.505,0.505,0.505
				s0.505-0.226,0.505-0.505v-1.32C277.899,235.254,277.673,235.027,277.395,235.027z"/>
			<path fill="#432F59" d="M287.061,232.735c-0.176-0.505-0.515-0.731-1.101-0.731c-0.103,0-0.206,0.013-0.307,0.039
				c-0.282,0.074-0.529,0.244-0.696,0.479c-0.011,0.016-0.022,0.032-0.032,0.049l-0.556,0.939l-0.91-0.636
				c0.168,0.009,0.33-0.01,0.492-0.051c0.435-0.112,0.801-0.386,1.03-0.773c0.229-0.386,0.293-0.84,0.182-1.276
				c-0.19-0.745-0.861-1.265-1.63-1.265c-0.14,0-0.282,0.018-0.42,0.053c-0.898,0.231-1.442,1.151-1.212,2.049
				c0.076,0.295,0.233,0.564,0.452,0.778c-0.129-0.003-0.255,0.011-0.377,0.043l-0.406,0.104v-2.122c0-0.82-0.667-1.487-1.487-1.487
				h-0.651c-0.233-0.533-0.774-0.888-1.371-0.888h-0.001l-6.052,0.688c-0.808,0.012-1.465,0.668-1.465,1.463v11.952
				c0,0.795,0.657,1.451,1.457,1.463l6.024,0.687l0.045,0.003c0.591,0,1.118-0.341,1.358-0.872h0.657
				c0.82,0,1.487-0.667,1.487-1.487v-2.991l0.728,0.417c0.022,2.296,0.025,2.315,0.036,2.383c0.012,0.074,0.036,0.146,0.067,0.203
				c0.192,0.535,0.702,0.894,1.271,0.894c0.105,0,0.21-0.012,0.312-0.036c0.624-0.145,1.065-0.716,1.049-1.357l-0.043-3.144
				c0.026-0.727-0.357-1.196-0.693-1.377c-0.013-0.007-0.026-0.014-0.04-0.02l-1.027-0.472l0.34-0.682l0.493,0.293
				c0.046,0.029,0.295,0.176,0.645,0.176c0.268,0,0.773-0.091,1.135-0.703l1.111-1.894c0.011-0.019,0.021-0.038,0.032-0.06
				C287.106,233.309,287.133,233.016,287.061,232.735z M283.309,230.331c0.073-0.019,0.148-0.028,0.223-0.028
				c0.407,0,0.761,0.275,0.862,0.669c0.059,0.231,0.025,0.471-0.096,0.675c-0.121,0.205-0.315,0.35-0.546,0.409
				c-0.072,0.019-0.147,0.028-0.222,0.028c-0.406,0-0.761-0.275-0.862-0.669C282.546,230.94,282.834,230.454,283.309,230.331z
				 M280.707,240.187v1.75c0,0.344-0.28,0.624-0.625,0.624h-0.527v-1.759l0.135-0.035
				C280.228,240.646,280.54,240.386,280.707,240.187z M286.284,233.232c-0.084,0.114-0.316,0.51-1.122,1.885
				c-0.123,0.208-0.276,0.314-0.453,0.314c-0.134,0-0.236-0.062-0.239-0.063l-1.228-0.729l-1.086,2.176l1.765,0.812
				c0.012,0.007,0.299,0.173,0.276,0.669l0.043,3.174c0.007,0.268-0.177,0.506-0.438,0.566c-0.043,0.01-0.087,0.015-0.132,0.015
				c-0.261,0-0.485-0.178-0.543-0.421l-0.014-0.058c-0.006-0.316-0.022-1.962-0.029-2.624l-0.001-0.046l-1.979-1.133l-0.956,1.838
				c-0.005,0.011-0.129,0.26-0.596,0.379v-2.27l1.727-3.399l-1.072,0.27l-0.655,1.314c0-0.736,0-1.739,0.001-1.881
				c0.055-0.107,0.153-0.185,0.271-0.216l2.349-0.603c0.143-0.038,0.3-0.015,0.423,0.055l2.043,1.35l0.042-0.072
				c0,0,0.911-1.538,0.922-1.558c0.099-0.169,0.407-0.27,0.554-0.163c0.12,0.086,0.212,0.24,0.111,0.413L286.284,233.232z
				 M280.707,232.76l-1.078,0.277c-0.025,0.007-0.05,0.014-0.074,0.022v-3.267h0.527c0.345,0,0.625,0.28,0.625,0.625V232.76z
				 M278.692,241.026v1.807c0,0.323-0.273,0.593-0.597,0.601l-6.022-0.686l-0.044-0.002c-0.345,0-0.625-0.269-0.625-0.601v-11.952
				c0-0.331,0.28-0.601,0.634-0.601l6.051-0.687c0.333,0.011,0.603,0.279,0.603,0.601l0.002,11.35l-0.03,0.179L278.692,241.026z"/>
		</g>
	</g>
	<g>
		<circle fill="#FFFFFF" cx="673.411" cy="467.173" r="11"/>
		<g>
			<path fill="#432F59" d="M672.615,466.031c-0.278,0-0.505,0.226-0.505,0.505v1.32c0,0.278,0.226,0.505,0.505,0.505
				c0.278,0,0.505-0.226,0.505-0.505v-1.32C673.119,466.258,672.893,466.031,672.615,466.031z"/>
			<path fill="#432F59" d="M682.281,463.739c-0.176-0.505-0.515-0.731-1.101-0.731c-0.103,0-0.206,0.013-0.307,0.039
				c-0.282,0.074-0.529,0.244-0.696,0.479c-0.011,0.016-0.022,0.032-0.032,0.049l-0.556,0.939l-0.91-0.636
				c0.168,0.009,0.33-0.01,0.492-0.051c0.435-0.112,0.801-0.386,1.03-0.773c0.229-0.386,0.293-0.84,0.182-1.276
				c-0.19-0.745-0.861-1.265-1.63-1.265c-0.14,0-0.282,0.018-0.42,0.053c-0.898,0.231-1.442,1.151-1.212,2.049
				c0.076,0.295,0.233,0.564,0.452,0.778c-0.129-0.003-0.255,0.011-0.378,0.043l-0.406,0.104v-2.122c0-0.82-0.667-1.487-1.487-1.487
				h-0.651c-0.233-0.533-0.774-0.888-1.371-0.888h-0.001l-6.052,0.688c-0.808,0.012-1.465,0.668-1.465,1.463v11.952
				c0,0.795,0.657,1.451,1.457,1.463l6.024,0.687l0.045,0.003c0.591,0,1.118-0.341,1.358-0.872h0.657
				c0.82,0,1.487-0.667,1.487-1.487v-2.991l0.728,0.417c0.022,2.296,0.025,2.315,0.036,2.383c0.012,0.074,0.036,0.146,0.067,0.203
				c0.192,0.534,0.702,0.893,1.271,0.893c0.105,0,0.21-0.012,0.312-0.036c0.624-0.145,1.065-0.716,1.049-1.357l-0.043-3.144
				c0.026-0.727-0.357-1.196-0.693-1.377c-0.013-0.007-0.026-0.014-0.04-0.02l-1.027-0.472l0.34-0.682l0.493,0.293
				c0.046,0.029,0.295,0.176,0.645,0.176c0.268,0,0.773-0.091,1.135-0.703l1.111-1.894c0.011-0.019,0.021-0.039,0.032-0.06
				C682.326,464.313,682.353,464.02,682.281,463.739z M678.529,461.335c0.073-0.019,0.148-0.028,0.223-0.028
				c0.407,0,0.761,0.275,0.862,0.669c0.059,0.231,0.025,0.471-0.096,0.675c-0.121,0.205-0.315,0.35-0.546,0.409
				c-0.072,0.019-0.147,0.028-0.222,0.028c-0.406,0-0.761-0.275-0.862-0.669C677.766,461.944,678.054,461.458,678.529,461.335z
				 M675.927,471.191v1.75c0,0.344-0.28,0.624-0.625,0.624h-0.527v-1.759l0.135-0.035C675.448,471.65,675.76,471.39,675.927,471.191
				z M681.504,464.236c-0.084,0.114-0.316,0.51-1.122,1.885c-0.123,0.208-0.276,0.314-0.453,0.314c-0.134,0-0.236-0.062-0.239-0.063
				l-1.228-0.729l-1.086,2.176l1.765,0.812c0.012,0.007,0.299,0.173,0.276,0.669l0.043,3.174c0.007,0.268-0.177,0.506-0.438,0.566
				c-0.043,0.01-0.087,0.015-0.132,0.015c-0.261,0-0.485-0.178-0.543-0.421l-0.014-0.058c-0.006-0.316-0.022-1.962-0.029-2.624
				l-0.001-0.046l-1.979-1.133l-0.956,1.838c-0.005,0.011-0.129,0.26-0.596,0.379v-2.27l1.727-3.399l-1.072,0.27l-0.655,1.314
				c0-0.736,0-1.739,0.001-1.881c0.055-0.107,0.153-0.185,0.271-0.216l2.349-0.603c0.143-0.038,0.3-0.015,0.423,0.055l2.043,1.35
				l0.042-0.072c0,0,0.911-1.538,0.922-1.558c0.099-0.169,0.407-0.27,0.554-0.163c0.12,0.086,0.212,0.24,0.111,0.413
				L681.504,464.236z M675.927,463.764l-1.078,0.277c-0.025,0.007-0.05,0.014-0.074,0.022v-3.267h0.527
				c0.345,0,0.625,0.28,0.625,0.625V463.764z M673.912,472.03v1.807c0,0.323-0.273,0.593-0.597,0.601l-6.022-0.686l-0.044-0.002
				c-0.344,0-0.625-0.269-0.625-0.601v-11.952c0-0.331,0.28-0.601,0.634-0.601l6.051-0.687c0.333,0.011,0.603,0.279,0.603,0.601
				l0.002,11.35l-0.03,0.179L673.912,472.03z"/>
		</g>
	</g>
	<g>
		<circle fill="#FFFFFF" cx="885.306" cy="474.301" r="11"/>
		<g>
			<path fill="#432F59" d="M884.51,473.159c-0.278,0-0.505,0.226-0.505,0.505v1.32c0,0.278,0.226,0.505,0.505,0.505
				c0.278,0,0.505-0.226,0.505-0.505v-1.32C885.015,473.385,884.789,473.159,884.51,473.159z"/>
			<path fill="#432F59" d="M894.177,470.867c-0.176-0.505-0.515-0.731-1.101-0.731c-0.103,0-0.206,0.013-0.307,0.039
				c-0.282,0.074-0.529,0.244-0.696,0.479c-0.011,0.016-0.022,0.032-0.032,0.049l-0.556,0.939l-0.91-0.636
				c0.168,0.009,0.33-0.01,0.492-0.051c0.435-0.112,0.801-0.386,1.03-0.773c0.229-0.386,0.293-0.84,0.182-1.276
				c-0.19-0.745-0.861-1.265-1.63-1.265c-0.14,0-0.282,0.018-0.42,0.053c-0.898,0.231-1.442,1.151-1.212,2.049
				c0.076,0.295,0.233,0.564,0.452,0.778c-0.129-0.003-0.255,0.011-0.378,0.043l-0.406,0.104v-2.122c0-0.82-0.667-1.487-1.487-1.487
				h-0.651c-0.233-0.533-0.774-0.888-1.371-0.888h-0.001l-6.052,0.688c-0.808,0.012-1.465,0.668-1.465,1.463v11.952
				c0,0.795,0.657,1.451,1.457,1.462l6.024,0.687l0.045,0.003c0.591,0,1.118-0.341,1.358-0.872h0.657
				c0.82,0,1.487-0.667,1.487-1.487v-2.991l0.728,0.417c0.022,2.296,0.025,2.315,0.036,2.383c0.012,0.074,0.036,0.146,0.067,0.203
				c0.192,0.535,0.702,0.894,1.271,0.894c0.105,0,0.21-0.012,0.312-0.036c0.624-0.145,1.065-0.716,1.049-1.357l-0.043-3.144
				c0.026-0.727-0.357-1.196-0.693-1.377c-0.013-0.007-0.026-0.014-0.04-0.02l-1.027-0.472l0.34-0.682l0.493,0.293
				c0.046,0.029,0.295,0.176,0.645,0.176c0.268,0,0.773-0.091,1.135-0.703l1.111-1.894c0.011-0.019,0.021-0.038,0.032-0.06
				C894.222,471.441,894.249,471.148,894.177,470.867z M890.425,468.463c0.073-0.019,0.148-0.028,0.223-0.028
				c0.407,0,0.761,0.275,0.862,0.669c0.059,0.231,0.025,0.471-0.096,0.675c-0.121,0.205-0.315,0.35-0.546,0.409
				c-0.072,0.019-0.147,0.028-0.222,0.028c-0.406,0-0.761-0.275-0.862-0.669C889.662,469.072,889.95,468.585,890.425,468.463z
				 M887.822,478.319v1.75c0,0.344-0.28,0.624-0.625,0.624h-0.527v-1.759l0.135-0.035
				C887.344,478.778,887.655,478.518,887.822,478.319z M893.399,471.364c-0.084,0.114-0.316,0.51-1.122,1.885
				c-0.123,0.208-0.276,0.314-0.453,0.314c-0.134,0-0.236-0.062-0.239-0.063l-1.228-0.729l-1.086,2.176l1.765,0.812
				c0.012,0.007,0.299,0.173,0.276,0.669l0.043,3.174c0.007,0.268-0.177,0.506-0.438,0.566c-0.043,0.01-0.087,0.015-0.132,0.015
				c-0.261,0-0.485-0.178-0.543-0.421l-0.014-0.058c-0.006-0.316-0.022-1.962-0.029-2.624l-0.001-0.046l-1.979-1.133l-0.956,1.838
				c-0.005,0.011-0.129,0.26-0.596,0.379v-2.27l1.727-3.399l-1.072,0.27l-0.655,1.314c0-0.736,0-1.739,0.001-1.881
				c0.055-0.107,0.153-0.185,0.271-0.216l2.349-0.603c0.143-0.038,0.3-0.015,0.423,0.055l2.043,1.35l0.042-0.072
				c0,0,0.911-1.538,0.922-1.558c0.099-0.169,0.407-0.27,0.554-0.163c0.12,0.086,0.212,0.24,0.111,0.413L893.399,471.364z
				 M887.822,470.892l-1.078,0.277c-0.025,0.007-0.05,0.014-0.074,0.022v-3.267h0.527c0.345,0,0.625,0.28,0.625,0.625V470.892z
				 M885.807,479.158v1.807c0,0.323-0.273,0.593-0.597,0.601l-6.022-0.686l-0.044-0.002c-0.344,0-0.625-0.269-0.625-0.601v-11.952
				c0-0.331,0.28-0.601,0.634-0.601l6.051-0.687c0.333,0.011,0.603,0.279,0.603,0.601l0.002,11.35l-0.03,0.179L885.807,479.158z"/>
		</g>
	</g>
</g>
<g id="estacionamiento">
	<g>
		<circle fill="#FFFFFF" cx="40.424" cy="485.301" r="11"/>
		<path fill="#432F59" d="M45.797,480.354c0.273,0,0.495-0.222,0.495-0.495v-2.134c0-0.273-0.222-0.495-0.495-0.495H35.051
			c-0.273,0-0.495,0.222-0.495,0.495v15.152c0,0.273,0.222,0.495,0.495,0.495h10.746c0.273,0,0.495-0.222,0.495-0.495v-2.134
			c0-0.273-0.222-0.495-0.495-0.495h-8.05v-3.657h7.08c0.273,0,0.495-0.222,0.495-0.495v-1.883c0-0.273-0.222-0.495-0.495-0.495
			h-7.08v-3.363H45.797z M45.475,491.066v1.489H35.374v-14.507h10.101v1.489h-8.546v4.999h7.576v1.238h-7.576v5.293H45.475z"/>
	</g>
	<g>
		<circle fill="#FFFFFF" cx="542.33" cy="489.037" r="11"/>
		<path fill="#432F59" d="M547.703,484.09c0.273,0,0.495-0.222,0.495-0.495v-2.134c0-0.273-0.222-0.495-0.495-0.495h-10.746
			c-0.273,0-0.495,0.222-0.495,0.495v15.152c0,0.273,0.222,0.495,0.495,0.495h10.746c0.273,0,0.495-0.222,0.495-0.495v-2.134
			c0-0.273-0.222-0.495-0.495-0.495h-8.05v-3.657h7.08c0.273,0,0.495-0.222,0.495-0.495v-1.883c0-0.273-0.222-0.495-0.495-0.495
			h-7.08v-3.363H547.703z M547.381,494.801v1.489H537.28v-14.507h10.101v1.489h-8.546v4.999h7.576v1.238h-7.576v5.293H547.381z"/>
	</g>
	<g>
		<circle fill="#FFFFFF" cx="959.686" cy="489.037" r="11"/>
		<path fill="#432F59" d="M965.059,484.09c0.273,0,0.495-0.222,0.495-0.495v-2.134c0-0.273-0.222-0.495-0.495-0.495h-10.746
			c-0.273,0-0.495,0.222-0.495,0.495v15.152c0,0.273,0.222,0.495,0.495,0.495h10.746c0.273,0,0.495-0.222,0.495-0.495v-2.134
			c0-0.273-0.222-0.495-0.495-0.495h-8.05v-3.657h7.08c0.273,0,0.495-0.222,0.495-0.495v-1.883c0-0.273-0.222-0.495-0.495-0.495
			h-7.08v-3.363H965.059z M964.737,494.801v1.489h-10.101v-14.507h10.101v1.489h-8.546v4.999h7.576v1.238h-7.576v5.293H964.737z"/>
	</g>
</g>
<g id="Layer_5">
	<g>
		<circle fill="#FFFFFF" cx="841.335" cy="280.853" r="11"/>
		<g>
			<path fill="#432F59" d="M841.335,277.828c-2.268,0-4.113,1.551-4.113,3.457s1.845,3.457,4.113,3.457
				c2.268,0,4.113-1.551,4.113-3.457S843.603,277.828,841.335,277.828z M844.641,281.285c0,1.46-1.483,2.649-3.305,2.649
				s-3.305-1.188-3.305-2.649c0-1.461,1.483-2.649,3.305-2.649S844.641,279.824,844.641,281.285z"/>
			<path fill="#432F59" d="M847.628,273.754h-12.585c-0.865,0-1.568,0.703-1.568,1.568v2.345c0,0.865,0.703,1.568,1.568,1.568h0.896
				v8.657c0,0.728,0.593,1.321,1.321,1.321h8.15c0.729,0,1.321-0.592,1.321-1.321v-8.657h0.896c0.864,0,1.568-0.703,1.568-1.568
				v-2.345C849.195,274.457,848.492,273.754,847.628,273.754z M845.923,278.945v8.947c0,0.283-0.23,0.513-0.513,0.513h-8.15
				c-0.283,0-0.513-0.23-0.513-0.513V277.25h9.16v1.581C845.907,278.87,845.913,278.908,845.923,278.945z M836.054,276.062
				c0-0.01,0.008-0.018,0.018-0.018h10.528c0.01,0,0.018,0.008,0.018,0.018v0.502c-0.046-0.048-0.103-0.084-0.164-0.101
				c-0.044-0.017-0.092-0.026-0.143-0.026h-9.984c-0.101,0-0.199,0.039-0.273,0.107V276.062z M846.731,277.77
				c0.397-0.064,0.694-0.412,0.694-0.815v-0.894c0-0.455-0.37-0.825-0.825-0.825h-10.528c-0.455,0-0.826,0.37-0.826,0.825v0.894
				c0,0.396,0.284,0.734,0.677,0.809v0.662h-0.88c-0.419,0-0.76-0.341-0.76-0.76v-2.345c0-0.419,0.341-0.759,0.76-0.759h12.585
				c0.419,0,0.76,0.341,0.76,0.759v2.345c0,0.419-0.341,0.76-0.76,0.76h-0.896V277.77z"/>
			<path fill="#432F59" d="M842.329,279.516c-0.406,0-0.801,0.219-1.054,0.584c-0.167,0.229-0.278,0.511-0.329,0.837l-0.001,0.005
				h-1.357l0.002-0.007c0.031-0.111,0.072-0.237,0.143-0.337c0.112-0.177,0.231-0.243,0.437-0.243c0.22,0,0.427-0.204,0.427-0.42
				s-0.208-0.42-0.427-0.42c-0.457,0-0.886,0.235-1.148,0.628c-0.15,0.224-0.248,0.491-0.291,0.794l-0.001,0.004l-0.005,0
				c-0.206,0.015-0.387,0.209-0.387,0.416c0.001,0.219,0.2,0.418,0.417,0.418h0.005l0.001,0.005
				c0.059,0.302,0.172,0.565,0.335,0.782c0.283,0.385,0.736,0.615,1.214,0.615c0.412,0,0.8-0.213,1.065-0.586
				c0.162-0.236,0.269-0.509,0.32-0.812l0.001-0.004h1.355l-0.002,0.007c-0.028,0.109-0.072,0.215-0.123,0.299
				c-0.124,0.188-0.252,0.261-0.454,0.261c-0.105,0-0.212,0.045-0.293,0.124c-0.082,0.081-0.129,0.187-0.129,0.291
				c0,0.107,0.048,0.215,0.131,0.295c0.08,0.079,0.185,0.124,0.287,0.124h0.005c0.459,0,0.89-0.236,1.154-0.631
				c0.145-0.226,0.243-0.483,0.29-0.766l0.001-0.005h0.004c0.215-0.005,0.412-0.207,0.413-0.425
				c-0.002-0.104-0.051-0.209-0.134-0.289c-0.081-0.078-0.184-0.12-0.293-0.12H843.9l-0.001-0.005
				c-0.065-0.314-0.183-0.586-0.35-0.807C843.265,279.746,842.809,279.516,842.329,279.516z M841.805,280.935
				c0.041-0.142,0.098-0.268,0.159-0.354c0.107-0.158,0.217-0.225,0.365-0.225c0.244,0,0.401,0.078,0.544,0.269
				c0.062,0.08,0.113,0.182,0.156,0.311l0.002,0.007h-1.228L841.805,280.935z M839.623,281.777h1.208l-0.002,0.007
				c-0.034,0.131-0.083,0.243-0.147,0.333c-0.111,0.159-0.222,0.227-0.371,0.227c-0.235,0-0.384-0.074-0.532-0.265
				c-0.064-0.091-0.114-0.187-0.153-0.294L839.623,281.777z"/>
		</g>
	</g>
	<g>
		<circle fill="#FFFFFF" cx="136.206" cy="434.459" r="11"/>
		<g>
			<path fill="#432F59" d="M136.206,431.435c-2.268,0-4.113,1.551-4.113,3.457s1.845,3.457,4.113,3.457s4.113-1.551,4.113-3.457
				S138.474,431.435,136.206,431.435z M139.512,434.891c0,1.46-1.483,2.649-3.305,2.649s-3.305-1.188-3.305-2.649
				c0-1.461,1.483-2.649,3.305-2.649S139.512,433.431,139.512,434.891z"/>
			<path fill="#432F59" d="M142.499,427.361h-12.585c-0.865,0-1.568,0.703-1.568,1.568v2.345c0,0.865,0.703,1.568,1.568,1.568h0.896
				v8.657c0,0.728,0.593,1.321,1.321,1.321h8.15c0.728,0,1.321-0.592,1.321-1.321v-8.657h0.896c0.864,0,1.568-0.703,1.568-1.568
				v-2.345C144.066,428.064,143.363,427.361,142.499,427.361z M140.794,432.551v8.947c0,0.283-0.23,0.513-0.513,0.513h-8.15
				c-0.283,0-0.513-0.23-0.513-0.513v-10.642h9.16v1.581C140.778,432.476,140.784,432.514,140.794,432.551z M130.925,429.668
				c0-0.01,0.008-0.018,0.018-0.018h10.528c0.01,0,0.018,0.008,0.018,0.018v0.502c-0.046-0.048-0.103-0.084-0.163-0.101
				c-0.044-0.017-0.092-0.026-0.143-0.026h-9.984c-0.101,0-0.199,0.039-0.273,0.107V429.668z M141.602,431.376
				c0.397-0.064,0.694-0.412,0.694-0.815v-0.894c0-0.455-0.37-0.825-0.825-0.825h-10.528c-0.455,0-0.826,0.37-0.826,0.825v0.894
				c0,0.396,0.284,0.734,0.677,0.809v0.662h-0.88c-0.419,0-0.76-0.341-0.76-0.76v-2.345c0-0.419,0.341-0.759,0.76-0.759h12.585
				c0.419,0,0.76,0.341,0.76,0.759v2.345c0,0.419-0.341,0.76-0.76,0.76h-0.896V431.376z"/>
			<path fill="#432F59" d="M137.2,433.123c-0.406,0-0.801,0.219-1.054,0.584c-0.167,0.229-0.278,0.511-0.329,0.837l-0.001,0.005
				h-1.357l0.002-0.007c0.031-0.111,0.072-0.237,0.143-0.337c0.112-0.177,0.231-0.243,0.437-0.243c0.22,0,0.427-0.204,0.427-0.42
				c0-0.216-0.208-0.42-0.427-0.42c-0.457,0-0.886,0.235-1.148,0.628c-0.15,0.224-0.248,0.491-0.291,0.794l-0.001,0.004l-0.005,0
				c-0.206,0.015-0.387,0.209-0.387,0.416c0.001,0.219,0.2,0.418,0.418,0.418h0.005l0.001,0.005
				c0.059,0.302,0.172,0.565,0.335,0.782c0.283,0.385,0.736,0.615,1.214,0.615c0.412,0,0.8-0.213,1.065-0.586
				c0.162-0.236,0.269-0.509,0.32-0.812l0.001-0.004h1.355l-0.002,0.007c-0.028,0.109-0.072,0.215-0.123,0.299
				c-0.124,0.188-0.252,0.261-0.454,0.261c-0.105,0-0.212,0.045-0.293,0.124c-0.082,0.081-0.129,0.187-0.129,0.291
				c0,0.107,0.048,0.215,0.131,0.295c0.08,0.079,0.185,0.124,0.287,0.124h0.005c0.459,0,0.89-0.236,1.154-0.631
				c0.145-0.226,0.243-0.483,0.29-0.766l0.001-0.005h0.004c0.215-0.005,0.412-0.207,0.413-0.425
				c-0.002-0.104-0.051-0.209-0.134-0.289c-0.081-0.078-0.184-0.12-0.293-0.12h-0.005l-0.001-0.005
				c-0.065-0.314-0.183-0.586-0.35-0.807C138.136,433.353,137.68,433.123,137.2,433.123z M136.676,434.541
				c0.041-0.142,0.098-0.268,0.159-0.354c0.107-0.158,0.217-0.225,0.365-0.225c0.244,0,0.401,0.078,0.544,0.269
				c0.062,0.08,0.113,0.182,0.156,0.311l0.002,0.007h-1.228L136.676,434.541z M134.494,435.383h1.208l-0.002,0.007
				c-0.034,0.131-0.083,0.243-0.147,0.333c-0.111,0.159-0.222,0.227-0.371,0.227c-0.235,0-0.384-0.075-0.532-0.265
				c-0.064-0.091-0.114-0.187-0.153-0.294L134.494,435.383z"/>
		</g>
	</g>
	<g>
		<circle fill="#FFFFFF" cx="942.31" cy="433.577" r="11"/>
		<g>
			<path fill="#432F59" d="M942.31,430.553c-2.268,0-4.113,1.551-4.113,3.457s1.845,3.457,4.113,3.457
				c2.268,0,4.113-1.551,4.113-3.457S944.578,430.553,942.31,430.553z M945.616,434.009c0,1.46-1.483,2.649-3.305,2.649
				s-3.305-1.188-3.305-2.649c0-1.461,1.483-2.649,3.305-2.649S945.616,432.549,945.616,434.009z"/>
			<path fill="#432F59" d="M948.602,426.479h-12.585c-0.865,0-1.568,0.703-1.568,1.568v2.345c0,0.865,0.703,1.568,1.568,1.568h0.896
				v8.657c0,0.728,0.593,1.321,1.321,1.321h8.15c0.729,0,1.321-0.592,1.321-1.321v-8.657h0.896c0.864,0,1.568-0.703,1.568-1.568
				v-2.345C950.17,427.182,949.467,426.479,948.602,426.479z M946.898,431.669v8.947c0,0.283-0.23,0.513-0.513,0.513h-8.15
				c-0.283,0-0.513-0.23-0.513-0.513v-10.642h9.16v1.581C946.882,431.594,946.888,431.632,946.898,431.669z M937.029,428.786
				c0-0.01,0.008-0.018,0.018-0.018h10.528c0.01,0,0.018,0.008,0.018,0.018v0.502c-0.046-0.048-0.103-0.084-0.164-0.101
				c-0.044-0.017-0.092-0.026-0.143-0.026h-9.984c-0.101,0-0.199,0.039-0.273,0.107V428.786z M947.706,430.494
				c0.397-0.064,0.694-0.412,0.694-0.815v-0.894c0-0.455-0.37-0.825-0.825-0.825h-10.528c-0.455,0-0.826,0.37-0.826,0.825v0.894
				c0,0.396,0.284,0.734,0.677,0.809v0.662h-0.88c-0.419,0-0.76-0.341-0.76-0.76v-2.345c0-0.419,0.341-0.759,0.76-0.759h12.585
				c0.419,0,0.76,0.341,0.76,0.759v2.345c0,0.419-0.341,0.76-0.76,0.76h-0.896V430.494z"/>
			<path fill="#432F59" d="M943.304,432.241c-0.406,0-0.801,0.219-1.054,0.584c-0.167,0.229-0.278,0.511-0.329,0.837l-0.001,0.005
				h-1.357l0.002-0.007c0.031-0.111,0.072-0.237,0.143-0.337c0.112-0.177,0.231-0.243,0.437-0.243c0.22,0,0.427-0.204,0.427-0.42
				s-0.208-0.42-0.427-0.42c-0.457,0-0.886,0.235-1.148,0.628c-0.15,0.224-0.248,0.491-0.291,0.794l-0.001,0.004l-0.005,0
				c-0.206,0.015-0.387,0.209-0.387,0.416c0.001,0.219,0.2,0.418,0.417,0.418h0.005l0.001,0.005
				c0.059,0.302,0.172,0.565,0.335,0.782c0.283,0.385,0.736,0.615,1.214,0.615c0.412,0,0.8-0.213,1.065-0.586
				c0.162-0.236,0.269-0.509,0.32-0.812l0.001-0.004h1.355l-0.002,0.007c-0.028,0.109-0.072,0.215-0.123,0.299
				c-0.124,0.188-0.252,0.261-0.454,0.261c-0.105,0-0.212,0.045-0.293,0.124c-0.082,0.081-0.129,0.187-0.129,0.291
				c0,0.107,0.048,0.215,0.131,0.295c0.08,0.079,0.185,0.124,0.287,0.124h0.005c0.459,0,0.89-0.236,1.154-0.631
				c0.145-0.226,0.243-0.483,0.29-0.766l0.001-0.005h0.004c0.215-0.005,0.412-0.207,0.413-0.425
				c-0.002-0.104-0.051-0.209-0.134-0.289c-0.081-0.078-0.184-0.12-0.293-0.12h-0.005l-0.001-0.005
				c-0.065-0.314-0.183-0.586-0.35-0.807C944.24,432.471,943.784,432.241,943.304,432.241z M942.78,433.659
				c0.041-0.142,0.098-0.268,0.159-0.354c0.107-0.158,0.217-0.225,0.365-0.225c0.244,0,0.401,0.078,0.544,0.269
				c0.062,0.08,0.113,0.182,0.156,0.311l0.002,0.007h-1.228L942.78,433.659z M940.598,434.501h1.208l-0.002,0.007
				c-0.034,0.131-0.083,0.243-0.147,0.333c-0.111,0.159-0.222,0.227-0.371,0.227c-0.235,0-0.384-0.074-0.532-0.265
				c-0.064-0.091-0.114-0.187-0.153-0.294L940.598,434.501z"/>
		</g>
	</g>
</g>
</svg>
