<?xml version="1.0" encoding="utf-8"?>
<!-- Generator: Adobe Illustrator 17.0.0, SVG Export Plug-In . SVG Version: 6.00 Build 0)  -->
<!DOCTYPE svg PUBLIC "-//W3C//DTD SVG 1.1//EN" "http://www.w3.org/Graphics/SVG/1.1/DTD/svg11.dtd">
<svg version="1.1" id="estacionamiento" xmlns="http://www.w3.org/2000/svg" xmlns:xlink="http://www.w3.org/1999/xlink" x="0px"
	 y="0px" width="1080px" height="700px" viewBox="0 0 1080 700" enable-background="new 0 0 1080 700" xml:space="preserve">
<g>
	<circle fill="#FFFFFF" cx="40.424" cy="485.301" r="11"/>
	<path fill="#432F59" d="M45.797,480.354c0.273,0,0.495-0.222,0.495-0.495v-2.134c0-0.273-0.222-0.495-0.495-0.495H35.051
		c-0.273,0-0.495,0.222-0.495,0.495v15.152c0,0.273,0.222,0.495,0.495,0.495h10.746c0.273,0,0.495-0.222,0.495-0.495v-2.134
		c0-0.273-0.222-0.495-0.495-0.495h-8.05v-3.657h7.08c0.273,0,0.495-0.222,0.495-0.495v-1.883c0-0.273-0.222-0.495-0.495-0.495
		h-7.08v-3.363H45.797z M45.475,491.066v1.489H35.374v-14.507h10.101v1.489h-8.546v4.999h7.576v1.238h-7.576v5.293H45.475z"/>
</g>
<g>
	<circle fill="#FFFFFF" cx="542.33" cy="489.037" r="11"/>
	<path fill="#432F59" d="M547.703,484.09c0.273,0,0.495-0.222,0.495-0.495v-2.134c0-0.273-0.222-0.495-0.495-0.495h-10.746
		c-0.273,0-0.495,0.222-0.495,0.495v15.152c0,0.273,0.222,0.495,0.495,0.495h10.746c0.273,0,0.495-0.222,0.495-0.495v-2.134
		c0-0.273-0.222-0.495-0.495-0.495h-8.05v-3.657h7.08c0.273,0,0.495-0.222,0.495-0.495v-1.883c0-0.273-0.222-0.495-0.495-0.495
		h-7.08v-3.363H547.703z M547.381,494.801v1.489H537.28v-14.507h10.101v1.489h-8.546v4.999h7.576v1.238h-7.576v5.293H547.381z"/>
</g>
<g>
	<circle fill="#FFFFFF" cx="959.686" cy="489.037" r="11"/>
	<path fill="#432F59" d="M965.059,484.09c0.273,0,0.495-0.222,0.495-0.495v-2.134c0-0.273-0.222-0.495-0.495-0.495h-10.746
		c-0.273,0-0.495,0.222-0.495,0.495v15.152c0,0.273,0.222,0.495,0.495,0.495h10.746c0.273,0,0.495-0.222,0.495-0.495v-2.134
		c0-0.273-0.222-0.495-0.495-0.495h-8.05v-3.657h7.08c0.273,0,0.495-0.222,0.495-0.495v-1.883c0-0.273-0.222-0.495-0.495-0.495
		h-7.08v-3.363H965.059z M964.737,494.801v1.489h-10.101v-14.507h10.101v1.489h-8.546v4.999h7.576v1.238h-7.576v5.293H964.737z"/>
</g>
</svg>
